<svg width="92" height="130" viewBox="0 0 92 130" fill="none" xmlns="http://www.w3.org/2000/svg">
<path d="M90.7847 117.561C92.3608 120.792 91.0271 124.723 87.6543 125.969C80.4947 128.613 72.9094 129.983 65.2435 130C55.4022 130.021 45.6841 127.811 36.82 123.536C27.9558 119.261 20.1762 113.032 14.0663 105.317C7.95636 97.6018 3.67503 88.6021 1.54424 78.9942C-0.586544 69.3864 -0.511334 59.4205 1.76422 49.8459C4.03977 40.2713 8.45644 31.3372 14.6821 23.7153C20.9078 16.0935 28.7805 9.98238 37.7082 5.8414C44.6625 2.61575 52.1159 0.65095 59.722 0.0203216C63.3052 -0.27676 66.1756 2.72168 66.1135 6.31658C66.0514 9.91148 63.0763 12.7333 59.5017 13.1198C53.867 13.7292 48.3546 15.2559 43.1868 17.6529C36.0446 20.9657 29.7465 25.8546 24.7659 31.952C19.7854 38.0495 16.252 45.1968 14.4316 52.8565C12.6112 60.5161 12.551 68.4889 14.2556 76.1752C15.9603 83.8614 19.3853 91.0612 24.2733 97.2332C29.1612 103.405 35.3849 108.388 42.4762 111.809C49.5675 115.229 57.342 116.997 65.215 116.98C70.9117 116.967 76.5527 116.02 81.9167 114.19C85.3196 113.03 89.2087 114.329 90.7847 117.561Z" fill="url(#paint0_linear_587_817)"/>
<defs>
<linearGradient id="paint0_linear_587_817" x1="3.40646" y1="12.0809" x2="130.809" y2="21.8031" gradientUnits="userSpaceOnUse">
<stop stop-color="#4E71FF"/>
<stop offset="1" stop-color="#5409DA"/>
</linearGradient>
</defs>
</svg>
