<svg width="117" height="129" viewBox="0 0 117 129" fill="none" xmlns="http://www.w3.org/2000/svg">
<path d="M113.962 94.3655C117.003 96.2115 117.996 100.196 115.856 103.038C110.358 110.335 103.355 116.401 95.2944 120.805C85.344 126.242 74.1346 128.956 62.7991 128.672C51.4637 128.389 40.404 125.118 30.7379 119.19C21.0718 113.262 13.1418 104.888 7.74949 94.9132C2.35716 84.9385 -0.306399 73.717 0.0280187 62.3829C0.362436 51.0489 3.68298 40.004 9.65403 30.3646C15.6251 20.7251 24.035 12.8328 34.0338 7.48525C42.1339 3.15321 51.0441 0.615611 60.1608 0.0128663C63.7103 -0.221807 66.5004 2.79183 66.3795 6.34704C66.2587 9.90225 63.2689 12.6445 59.7264 12.9679C52.8815 13.5926 46.2082 15.5828 40.1091 18.8447C32.11 23.1227 25.3821 29.4366 20.6052 37.1482C15.8284 44.8597 13.1719 53.6956 12.9044 62.7629C12.6369 71.8301 14.7677 80.8073 19.0816 88.7871C23.3954 96.7668 29.7394 103.466 37.4723 108.209C45.2052 112.951 54.053 115.568 63.1213 115.794C72.1897 116.021 81.1572 113.85 89.1175 109.501C95.1872 106.184 100.507 101.691 104.779 96.3059C106.99 93.519 110.921 92.5195 113.962 94.3655Z" fill="url(#paint0_linear_587_830)"/>
<defs>
<linearGradient id="paint0_linear_587_830" x1="3.37029" y1="12.0254" x2="129.421" y2="21.6444" gradientUnits="userSpaceOnUse">
<stop stop-color="#4E71FF"/>
<stop offset="1" stop-color="#5409DA"/>
</linearGradient>
</defs>
</svg>
