<svg width="130" height="130" viewBox="0 0 130 130" fill="none" xmlns="http://www.w3.org/2000/svg">
<path d="M123.781 64.8521C127.379 64.8521 130.33 67.7762 129.97 71.3562C128.908 81.9432 125.264 92.1445 119.316 101.046C112.158 111.76 101.983 120.11 90.0789 125.041C78.1747 129.972 65.0756 131.262 52.4382 128.748C39.8007 126.234 28.1925 120.03 19.0814 110.919C9.97031 101.807 3.76557 90.1993 1.25183 77.5618C-1.26192 64.9244 0.0282289 51.8253 4.95912 39.9211C9.89 28.0169 18.2402 17.8422 28.9537 10.6836C37.8555 4.73561 48.0568 1.0919 58.6437 0.0296677C62.2238 -0.329532 65.1479 2.62099 65.1479 6.21901C65.1479 9.81703 62.2198 12.6918 58.6499 13.1404C50.6444 14.1464 42.9504 17.0018 36.1925 21.5173C27.6217 27.2441 20.9416 35.3839 16.9969 44.9073C13.0522 54.4307 12.02 64.9099 14.031 75.0199C16.042 85.1298 21.0058 94.4164 28.2947 101.705C35.5836 108.994 44.8702 113.958 54.9801 115.969C65.0901 117.98 75.5693 116.948 85.0927 113.003C94.6161 109.058 102.756 102.378 108.483 93.8075C112.998 87.0496 115.854 79.3556 116.86 71.3501C117.308 67.7801 120.183 64.8521 123.781 64.8521Z" fill="url(#paint0_linear_587_806)"/>
<defs>
<linearGradient id="paint0_linear_587_806" x1="3.40893" y1="11.9963" x2="130.903" y2="21.7254" gradientUnits="userSpaceOnUse">
<stop stop-color="#4E71FF"/>
<stop offset="1" stop-color="#5409DA"/>
</linearGradient>
</defs>
</svg>
