<svg width="70" height="70" viewBox="0 0 70 70" fill="none" xmlns="http://www.w3.org/2000/svg">
<path d="M7.29169 26.25H62.7084M37.9167 37.9166H49.5834M37.9167 49.5833H43.75M20.4167 17.5H20.4429M32.0834 17.5H32.1096M26.25 26.25V62.7083M7.29169 35C7.29169 21.9391 7.29169 15.4058 11.3488 11.3487C15.4059 7.29163 21.9363 7.29163 35 7.29163C48.0609 7.29163 54.5942 7.29163 58.6513 11.3487C62.7084 15.4058 62.7084 21.9362 62.7084 35C62.7084 48.0608 62.7084 54.5941 58.6513 58.6512C54.5942 62.7083 48.0638 62.7083 35 62.7083C21.9392 62.7083 15.4059 62.7083 11.3488 58.6512C7.29169 54.5941 7.29169 48.0637 7.29169 35Z" stroke="#7691FF" stroke-width="4.375" stroke-linecap="round" stroke-linejoin="round"/>
</svg>
