<svg width="761" height="677" viewBox="0 0 761 677" fill="none" xmlns="http://www.w3.org/2000/svg">
<g opacity="0.04" filter="url(#filter0_f_587_640)">
<path fill-rule="evenodd" clip-rule="evenodd" d="M680.906 359.943L680.654 363.569L680.107 367.184L679.266 370.778L678.137 374.341L676.723 377.866L675.033 381.344L673.074 384.767L670.857 388.127L668.392 391.417L665.694 394.63L662.774 397.762L659.648 400.806L656.331 403.76L652.841 406.618L649.193 409.379L645.405 412.04L641.494 414.601L637.478 417.061L633.374 419.421L629.198 421.68L624.966 423.841L620.694 425.906L616.394 427.877L612.08 429.757L607.766 431.55L603.462 433.257L599.179 434.884L594.926 436.434L590.713 437.911L586.548 439.32L582.437 440.664L578.388 441.948L574.407 443.178L570.501 444.357L566.676 445.491L562.936 446.586L559.287 447.646L555.735 448.679L552.284 449.689L548.939 450.683L545.704 451.667L542.584 452.649L539.581 453.633L536.7 454.628L533.944 455.64L531.313 456.675L528.812 457.741L526.441 458.845L524.201 459.993L522.092 461.191L520.114 462.446L518.267 463.763L516.548 465.149L514.956 466.608L513.487 468.146L512.139 469.767L510.906 471.474L509.784 473.272L508.768 475.162L507.852 477.147L507.029 479.228L506.291 481.406L505.632 483.681L505.043 486.052L504.517 488.517L504.044 491.075L503.615 493.723L503.221 496.456L502.853 499.27L502.502 502.16L502.159 505.121L501.813 508.145L501.456 511.227L501.079 514.358L500.673 517.53L500.229 520.736L499.74 523.965L499.199 527.21L498.597 530.46L497.929 533.706L497.187 536.939L496.368 540.149L495.466 543.326L494.477 546.461L493.397 549.545L492.224 552.569L490.955 555.524L489.59 558.403L488.127 561.197L486.567 563.901L484.91 566.507L483.158 569.01L481.312 571.405L479.375 573.688L477.35 575.855L475.241 577.905L473.051 579.836L470.785 581.647L468.446 583.338L466.041 584.91L463.574 586.365L461.051 587.705L458.476 588.933L455.854 590.054L453.192 591.072L450.493 591.99L447.763 592.815L445.006 593.551L442.227 594.204L439.429 594.778L436.615 595.279L433.79 595.71L430.955 596.075L428.113 596.376L425.266 596.616L422.416 596.795L419.563 596.913L416.709 596.969L413.855 596.962L411.002 596.889L408.15 596.748L405.303 596.536L402.459 596.251L399.622 595.89L396.792 595.452L393.971 594.934L391.162 594.336L388.365 593.655L385.584 592.892L382.819 592.048L380.074 591.122L377.35 590.115L374.65 589.031L371.975 587.872L369.327 586.639L366.709 585.339L364.121 583.973L361.566 582.547L359.044 581.066L356.556 579.536L354.104 577.961L351.688 576.349L349.307 574.705L346.963 573.036L344.654 571.348L342.38 569.648L340.139 567.942L337.932 566.238L335.755 564.541L333.608 562.859L331.489 561.196L329.394 559.561L327.321 557.957L325.268 556.391L323.232 554.869L321.209 553.394L319.197 551.972L317.191 550.607L315.188 549.303L313.184 548.063L311.176 546.891L309.159 545.788L307.13 544.758L305.085 543.803L303.02 542.923L300.931 542.121L298.813 541.396L296.664 540.749L294.479 540.181L292.255 539.691L289.987 539.278L287.673 538.942L285.309 538.68L282.891 538.492L280.417 538.376L277.883 538.33L275.286 538.351L272.623 538.437L269.893 538.584L267.092 538.79L264.218 539.052L261.269 539.366L258.243 539.728L255.139 540.135L251.955 540.582L248.689 541.066L245.342 541.581L241.912 542.125L238.398 542.691L234.8 543.275L231.12 543.871L227.356 544.476L223.51 545.083L219.583 545.687L215.576 546.282L211.493 546.863L207.334 547.423L203.103 547.955L198.803 548.455L194.439 548.914L190.014 549.327L185.535 549.686L181.007 549.984L176.438 550.214L171.836 550.366L167.21 550.432L162.571 550.402L157.932 550.268L153.306 550.019L148.707 549.646L144.15 549.139L139.651 548.49L135.226 547.689L130.892 546.731L126.666 545.607L122.564 544.312L118.603 542.843L114.798 541.195L111.165 539.366L107.718 537.356L104.472 535.164L101.439 532.793L98.631 530.244L96.0585 527.523L93.7312 524.633L91.657 521.581L89.8428 518.374L88.2939 515.019L87.0142 511.526L86.0061 507.904L85.2706 504.163L84.807 500.314L84.6135 496.367L84.6863 492.335L85.0206 488.229L85.61 484.06L86.4466 479.842L87.5216 475.586L88.8243 471.304L90.3435 467.008L92.0663 462.708L93.9791 458.417L96.0671 454.144L98.3149 449.9L100.706 445.694L103.223 441.535L105.85 437.432L108.567 433.391L111.356 429.42L114.198 425.523L117.076 421.708L119.968 417.976L122.858 414.332L125.726 410.778L128.553 407.315L131.322 403.945L134.015 400.666L136.614 397.477L139.105 394.377L141.471 391.363L143.697 388.43L145.77 385.576L147.676 382.794L149.406 380.079L150.947 377.426L152.291 374.826L153.429 372.274L154.356 369.761L155.065 367.28L155.552 364.822L155.816 362.379L155.855 359.943L155.669 357.506L155.259 355.058L154.629 352.592L153.783 350.099L152.727 347.572L151.468 345.003L150.014 342.385L148.373 339.711L146.558 336.976L144.579 334.173L142.449 331.297L140.181 328.344L137.79 325.31L135.29 322.193L132.697 318.99L130.027 315.7L127.297 312.321L124.522 308.855L121.721 305.301L118.909 301.661L116.105 297.939L113.324 294.136L110.582 290.256L107.892 286.304L105.269 282.282L102.724 278.196L100.266 274.051L97.9076 269.85L95.6574 265.6L93.526 261.306L91.523 256.975L89.6575 252.613L87.9381 248.227L86.3724 243.824L84.9675 239.411L83.7294 234.996L82.6633 230.584L81.7735 226.184L81.0633 221.803L80.5352 217.446L80.1907 213.12L80.0305 208.833L80.0543 204.588L80.2612 200.393L80.6495 196.252L81.2167 192.17L81.9598 188.152L82.8751 184.201L83.9584 180.321L85.2053 176.516L86.6105 172.788L88.1689 169.139L89.8748 165.572L91.7223 162.088L93.7056 158.69L95.8186 155.376L98.0551 152.15L100.409 149.01L102.874 145.958L105.445 142.993L108.115 140.115L110.879 137.323L113.732 134.619L116.667 132L119.68 129.467L122.767 127.019L125.922 124.655L129.14 122.375L132.419 120.178L135.755 118.065L139.142 116.034L142.58 114.085L146.064 112.22L149.591 110.436L153.159 108.736L156.766 107.119L160.41 105.586L164.088 104.138L167.799 102.775L171.541 101.499L175.312 100.311L179.111 99.2118L182.936 98.2039L186.786 97.2885L190.66 96.4674L194.556 95.7424L198.472 95.1154L202.408 94.5883L206.361 94.1629L210.33 93.8412L214.314 93.625L218.31 93.516L222.316 93.5157L226.33 93.6256L230.351 93.8469L234.375 94.1806L238.4 94.6273L242.423 95.1876L246.442 95.8614L250.453 96.6485L254.453 97.5482L258.44 98.5595L262.41 99.6808L266.359 100.91L270.284 102.245L274.182 103.683L278.049 105.221L281.882 106.854L285.677 108.578L289.431 110.39L293.141 112.284L296.804 114.254L300.417 116.295L303.976 118.396L307.477 120.548L310.919 122.738L314.296 124.953L317.607 127.178L320.85 129.397L324.023 131.595L327.125 133.758L330.157 135.869L333.118 137.915L336.011 139.88L338.837 141.75L341.599 143.512L344.3 145.152L346.945 146.657L349.537 148.017L352.082 149.22L354.586 150.256L357.054 151.117L359.493 151.793L361.911 152.28L364.313 152.57L366.709 152.66L369.104 152.547L371.508 152.229L373.927 151.705L376.37 150.976L378.844 150.044L381.357 148.913L383.915 147.588L386.527 146.075L389.197 144.381L391.934 142.514L394.742 140.486L397.626 138.306L400.591 135.987L403.64 133.541L406.778 130.983L410.005 128.328L413.324 125.591L416.736 122.79L420.24 119.939L423.835 117.059L427.519 114.165L431.291 111.277L435.145 108.413L439.078 105.592L443.084 102.832L447.157 100.151L451.29 97.5684L455.475 95.1011L459.703 92.7667L463.966 90.5822L468.253 88.5637L472.553 86.7265L476.857 85.0851L481.152 83.6532L485.426 82.4432L489.668 81.4664L493.866 80.7331L498.006 80.2519L502.077 80.0305L506.067 80.0748L509.963 80.3896L513.754 80.9778L517.429 81.841L520.977 82.9794L524.387 84.3913L527.652 86.0738L530.761 88.0222L533.708 90.2305L536.485 92.691L539.088 95.3948L541.512 98.3316L543.753 101.49L545.811 104.857L547.683 108.418L549.371 112.16L550.876 116.066L552.202 120.121L553.354 124.307L554.336 128.607L555.156 133.005L555.822 137.482L556.341 142.022L556.723 146.609L556.979 151.227L557.118 155.86L557.15 160.494L557.085 165.117L556.935 169.717L556.711 174.28L556.424 178.796L556.087 183.254L555.712 187.644L555.309 191.958L554.893 196.187L554.475 200.325L554.066 204.363L553.681 208.298L553.33 212.123L553.025 215.834L552.78 219.429L552.605 222.903L552.513 226.256L552.514 229.485L552.619 232.591L552.84 235.575L553.184 238.436L553.663 241.177L554.284 243.801L555.056 246.312L555.985 248.713L557.078 251.009L558.339 253.206L559.774 255.31L561.386 257.327L563.175 259.266L565.145 261.134L567.294 262.938L569.621 264.689L572.124 266.394L574.798 268.063L577.64 269.705L580.642 271.329L583.797 272.946L587.097 274.564L590.532 276.193L594.092 277.843L597.763 279.521L601.535 281.237L605.391 283L609.319 284.815L613.302 286.692L617.324 288.637L621.369 290.655L625.419 292.753L629.456 294.934L633.461 297.204L637.418 299.564L641.306 302.018L645.108 304.566L648.806 307.21L652.38 309.949L655.814 312.783L659.09 315.709L662.191 318.725L665.102 321.827L667.806 325.011L670.289 328.272L672.539 331.604L674.543 335L676.289 338.455L677.767 341.96L678.97 345.506L679.891 349.087L680.522 352.693L680.862 356.315L680.906 359.943Z" fill="#7691FF"/>
</g>
<defs>
<filter id="filter0_f_587_640" x="0" y="0" width="760.936" height="677" filterUnits="userSpaceOnUse" color-interpolation-filters="sRGB">
<feFlood flood-opacity="0" result="BackgroundImageFix"/>
<feBlend mode="normal" in="SourceGraphic" in2="BackgroundImageFix" result="shape"/>
<feGaussianBlur stdDeviation="40" result="effect1_foregroundBlur_587_640"/>
</filter>
</defs>
</svg>
