<svg width="70" height="70" viewBox="0 0 70 70" fill="none" xmlns="http://www.w3.org/2000/svg">
<path d="M58.3333 8.75H11.6667C8.44959 8.75 5.83334 11.3663 5.83334 14.5833V55.4167C5.83334 58.6338 8.44959 61.25 11.6667 61.25H58.3333C61.5504 61.25 64.1667 58.6338 64.1667 55.4167V14.5833C64.1667 11.3663 61.5504 8.75 58.3333 8.75ZM11.6667 55.4167V20.4167H58.3333L58.3392 55.4167H11.6667Z" fill="#7691FF"/>
<path d="M27.1046 27.1046L16.2925 37.9167L27.1046 48.7288L31.2288 44.6046L24.5408 37.9167L31.2288 31.2288L27.1046 27.1046ZM42.8954 27.1046L38.7713 31.2288L45.4592 37.9167L38.7713 44.6046L42.8954 48.7288L53.7075 37.9167L42.8954 27.1046Z" fill="#7691FF"/>
</svg>
