<svg width="60" height="60" viewBox="0 0 60 60" fill="none" xmlns="http://www.w3.org/2000/svg">
<path d="M40.7362 52.2C40.1692 52.4741 39.5306 52.564 38.91 52.4571C38.2893 52.3501 37.7176 52.0518 37.275 51.6038L18.06 33.9863L9.68999 40.3725C9.31275 40.6594 8.84681 40.805 8.37331 40.7837C7.89982 40.7625 7.44878 40.5758 7.09874 40.2563L4.41374 37.8C4.20498 37.6079 4.03835 37.3746 3.92436 37.1148C3.81038 36.855 3.75153 36.5743 3.75153 36.2906C3.75153 36.0069 3.81038 35.7263 3.92436 35.4665C4.03835 35.2067 4.20498 34.9734 4.41374 34.7813L11.67 28.125L4.41374 21.4688C4.20498 21.2766 4.03835 21.0433 3.92436 20.7835C3.81038 20.5237 3.75153 20.2431 3.75153 19.9594C3.75153 19.6757 3.81038 19.3951 3.92436 19.1353C4.03835 18.8754 4.20498 18.6421 4.41374 18.45L7.09874 15.9938C7.44923 15.6747 7.90051 15.4888 8.37399 15.4682C8.84748 15.4476 9.31318 15.5938 9.68999 15.8813L18.06 22.2638L37.275 4.65C37.7196 4.20502 38.2913 3.90902 38.9113 3.80289C39.5313 3.69676 40.169 3.78572 40.7362 4.0575L50.775 8.91C51.8287 9.42 52.5 10.4925 52.5 11.67V30H40.32V17.0025L25.74 28.125L40.32 39.2475V30H52.5V44.5838C52.5 45.7613 51.8287 46.8338 50.775 47.3438L40.7362 52.2Z" fill="#959595"/>
</svg>
