<svg width="71" height="70" viewBox="0 0 71 70" fill="none" xmlns="http://www.w3.org/2000/svg">
<path d="M7.625 26.25H63.0417M38.25 37.9166H49.9167M38.25 49.5833H44.0833M20.75 17.5H20.7762M32.4167 17.5H32.4429M26.5833 26.25V62.7083M7.625 35C7.625 21.9391 7.625 15.4058 11.6821 11.3487C15.7392 7.29163 22.2696 7.29163 35.3333 7.29163C48.3942 7.29163 54.9275 7.29163 58.9846 11.3487C63.0417 15.4058 63.0417 21.9362 63.0417 35C63.0417 48.0608 63.0417 54.5941 58.9846 58.6512C54.9275 62.7083 48.3971 62.7083 35.3333 62.7083C22.2725 62.7083 15.7392 62.7083 11.6821 58.6512C7.625 54.5941 7.625 48.0637 7.625 35Z" stroke="#7691FF" stroke-width="4.375" stroke-linecap="round" stroke-linejoin="round"/>
</svg>
