<svg width="61" height="62" viewBox="0 0 61 62" fill="none" xmlns="http://www.w3.org/2000/svg">
<path d="M31.7095 9.65688C35.6191 6.66517 40.2257 4.90726 44.0425 7.11155C47.8592 9.31332 48.6416 14.1833 48.0047 19.0633C47.9278 19.6685 47.8266 20.2888 47.7013 20.924C48.3148 21.1347 48.9025 21.357 49.4642 21.5911C54.0082 23.4819 57.8349 26.594 57.8349 31.0001C57.8349 35.4061 54.0082 38.5182 49.4642 40.409C48.9008 40.6431 48.3131 40.8654 47.7013 41.0761C47.8266 41.7113 47.9278 42.3316 48.0047 42.9368C48.6416 47.8168 47.8592 52.6868 44.0425 54.8886C40.2283 57.0928 35.6166 55.3349 31.7095 52.3457C31.2107 51.9624 30.7239 51.5634 30.2501 51.1496C29.7602 51.5759 29.2737 51.9746 28.7906 52.3457C24.8835 55.3349 20.2744 57.0928 16.4576 54.8886C12.6434 52.6868 11.861 47.8168 12.4954 42.9368C12.5779 42.3135 12.68 41.693 12.8014 41.0761C12.1861 40.8654 11.5977 40.6431 11.0359 40.409C6.49195 38.5182 2.66517 35.4061 2.66517 31.0001C2.66517 26.594 6.49195 23.4819 11.0359 21.5911C11.5993 21.357 12.1878 21.1347 12.8014 20.924C12.676 20.2888 12.574 19.6685 12.4954 19.0633C11.861 14.1833 12.6434 9.31332 16.4576 7.11155C20.2718 4.90977 24.8835 6.66517 28.7906 9.65688C29.2754 10.0247 29.7619 10.4226 30.2501 10.8506C30.7399 10.4242 31.2264 10.0263 31.7095 9.65688ZM17.6613 42.3776C17.5861 42.7922 17.5226 43.1942 17.4707 43.5838C16.8864 48.0801 17.9873 49.9785 18.9678 50.5452C19.9509 51.1119 22.1451 51.117 25.7462 48.3635C26.0692 48.1146 26.3861 47.8579 26.6966 47.5936C25.4603 46.1908 24.296 44.7261 23.2084 43.2051C21.3465 43.0235 19.4951 42.7473 17.6613 42.3776ZM42.8463 42.3776C41.1143 42.7303 39.2653 43.0062 37.2992 43.2051C36.144 44.81 34.9813 46.2729 33.811 47.5936C34.1303 47.8661 34.4463 48.1219 34.7589 48.361C38.36 51.117 40.5568 51.1119 41.5373 50.5452C42.5203 49.9785 43.6187 48.0801 43.0344 43.5838C42.9815 43.1802 42.9188 42.778 42.8463 42.3776ZM30.2501 23.4769C28.7638 23.4769 27.3411 23.5195 25.9819 23.6048C25.2279 24.7416 24.479 25.9537 23.735 27.241C23.0224 28.474 22.3476 29.7285 21.7113 31.0026C22.3181 32.223 22.9927 33.476 23.735 34.7616C24.4773 36.0473 25.2263 37.2593 25.9819 38.3978C28.8257 38.5651 31.6769 38.5651 34.5207 38.3978C35.2747 37.261 36.0228 36.0489 36.7651 34.7616C37.4785 33.5286 38.1542 32.2742 38.7913 31.0001C38.1542 29.7259 37.4785 28.4715 36.7651 27.2385C36.054 26.0048 35.3055 24.793 34.5207 23.6048C33.0988 23.5189 31.6746 23.4762 30.2501 23.4769ZM14.1004 25.784C13.7174 25.921 13.3377 26.0674 12.9619 26.2229C8.77397 27.9632 7.68061 29.8666 7.68061 31.0001C7.68061 32.1335 8.77648 34.0369 12.9619 35.7773C13.3263 35.9277 13.7058 36.074 14.1004 36.2161C14.6978 34.4436 15.3849 32.7027 16.1592 31.0001C15.3858 29.2973 14.697 27.5564 14.1004 25.784ZM46.3997 25.784C45.8032 27.5564 45.1168 29.2973 44.3434 31.0001C45.1559 32.7981 45.843 34.5435 46.3997 36.2161C46.7828 36.0791 47.1624 35.9327 47.5382 35.7773C51.7261 34.0369 52.8195 32.1335 52.8195 31.0001C52.8195 29.8666 51.7261 27.9657 47.5382 26.2229C47.1624 26.0674 46.7828 25.921 46.3997 25.784ZM30.2501 27.2385C31.2477 27.2385 32.2045 27.6348 32.9099 28.3402C33.6153 29.0456 34.0116 30.0024 34.0116 31.0001C34.0116 31.9977 33.6153 32.9545 32.9099 33.6599C32.2045 34.3653 31.2477 34.7616 30.2501 34.7616C29.2524 34.7616 28.2957 34.3653 27.5902 33.6599C26.8848 32.9545 26.4885 31.9977 26.4885 31.0001C26.4885 30.0024 26.8848 29.0456 27.5902 28.3402C28.2957 27.6348 29.2524 27.2385 30.2501 27.2385ZM18.9653 11.4549C17.9848 12.0217 16.8839 13.92 17.4682 18.4163C17.5184 18.8075 17.5819 19.2096 17.6588 19.6225C19.3891 19.2698 21.2382 18.9939 23.2059 18.795C24.2935 17.274 25.4577 15.8093 26.6941 14.4065C26.3836 14.143 26.0667 13.8872 25.7437 13.6391C22.1426 10.8832 19.9484 10.8882 18.9653 11.4549ZM41.5348 11.4549C40.5543 10.8882 38.3575 10.8857 34.7564 13.6391C34.4343 13.8872 34.1182 14.1431 33.8085 14.4065C34.9771 15.7256 36.1457 17.1926 37.2942 18.795C39.2636 18.9939 41.1135 19.2698 42.8438 19.6225C42.9162 19.2229 42.9789 18.8215 43.0319 18.4188C43.6187 13.9225 42.5178 12.0217 41.5348 11.4549Z" fill="#959595"/>
</svg>
