<svg width="61" height="61" viewBox="0 0 61 61" fill="none" xmlns="http://www.w3.org/2000/svg">
<path fill-rule="evenodd" clip-rule="evenodd" d="M22.0287 23.9349C21.1665 23.9349 20.3128 24.1047 19.5163 24.4346C18.7198 24.7646 17.996 25.2482 17.3864 25.8578C16.7768 26.4674 16.2932 27.1911 15.9633 27.9877C15.6333 28.7842 15.4635 29.6379 15.4635 30.5C15.4635 31.3622 15.6333 32.2159 15.9633 33.0124C16.2932 33.8089 16.7768 34.5326 17.3864 35.1423C17.996 35.7519 18.7198 36.2355 19.5163 36.5654C20.3128 36.8953 21.1665 37.0652 22.0287 37.0652H28.5938V23.9349H22.0287ZM28.5938 20.1224H22.0287C20.2871 20.1224 18.6169 19.4306 17.3855 18.1991C16.1541 16.9677 15.4623 15.2975 15.4623 13.556C15.4623 11.8145 16.1541 10.1443 17.3855 8.91286C18.6169 7.68142 20.2871 6.98961 22.0287 6.98961H28.5938V20.1224ZM32.4063 6.98961V20.1224H38.9714C40.6906 20.0886 42.3279 19.3819 43.5317 18.1541C44.7355 16.9264 45.4099 15.2755 45.4099 13.556C45.4099 11.8365 44.7355 10.1856 43.5317 8.95786C42.3279 7.73011 40.6906 7.02343 38.9714 6.98961H32.4063ZM38.9714 23.9324C37.2481 23.9321 35.5939 24.6095 34.3656 25.8183C33.1374 27.027 32.4336 28.6702 32.4063 30.3933V30.6042C32.4273 31.8979 32.8302 33.1566 33.5642 34.2221C34.2983 35.2876 35.3308 36.1124 36.5321 36.593C37.7335 37.0735 39.05 37.1884 40.3164 36.9232C41.5828 36.6579 42.7426 36.0244 43.6501 35.1021C44.5576 34.1799 45.1723 33.01 45.4171 31.7395C45.6619 30.469 45.5258 29.1545 45.0259 27.9611C44.526 26.7677 43.6847 25.7486 42.6075 25.0318C41.5303 24.315 40.2653 23.9325 38.9714 23.9324ZM22.0287 40.8777C20.7296 40.8772 19.4595 41.2619 18.3792 41.9833C17.2988 42.7046 16.4566 43.7302 15.9591 44.9302C15.4616 46.1303 15.3312 47.4509 15.5843 48.7251C15.8375 49.9992 16.4628 51.1697 17.3812 52.0885C18.2996 53.0072 19.4698 53.633 20.7439 53.8866C22.018 54.1402 23.3386 54.0103 24.5389 53.5133C25.7391 53.0163 26.765 52.1745 27.4868 51.0944C28.2085 50.0143 28.5938 48.7444 28.5938 47.4453V40.8777H22.0287Z" fill="#959595"/>
</svg>
