<svg width="60" height="60" viewBox="0 0 60 60" fill="none" xmlns="http://www.w3.org/2000/svg">
<path d="M20.3175 15.55C22.9425 13.4425 26.2475 12.5 30 12.5C33.5225 12.5 36.2125 13.325 38.395 14.585C40.245 15.6475 41.78 17.1025 43.265 18.61C44.88 20.2525 45.755 21.05 46.8575 21.325C48.04 21.62 49.04 21.53 49.955 21.14C50.905 20.7325 51.9325 19.9225 53 18.5L57.425 20.6075C56.5 24.3175 54.8075 27.3575 52.1875 29.4525C49.56 31.5525 46.2575 32.5 42.5 32.5C38.98 32.5 36.29 31.6725 34.1075 30.415C32.0225 29.215 30.5 27.67 29.3075 26.4575C27.65 24.7775 26.7625 23.955 25.645 23.675C24.4625 23.38 23.4625 23.47 22.5475 23.86C21.5975 24.2675 20.5675 25.0775 19.5 26.5L15.075 24.3925C16.0025 20.6825 17.695 17.6425 20.315 15.5475M30 17.5C27.93 17.5 26.2625 17.865 24.9175 18.52C28.2175 18.725 30.37 20.7575 32.56 22.8225C33.82 24.0125 35.0925 25.2125 36.6025 26.0825C38.0025 26.8875 39.8275 27.5 42.5025 27.5C44.5725 27.5 46.24 27.135 47.585 26.48C44.285 26.2725 42.1325 24.2425 39.945 22.1775C38.6825 20.9875 37.4125 19.7875 35.9 18.9175C34.5025 18.1125 32.675 17.5 30 17.5ZM7.81499 30.55C10.4425 28.4425 13.7475 27.5 17.5 27.5C21.0225 27.5 23.7125 28.325 25.895 29.585C27.745 30.6475 29.28 32.1025 30.765 33.61C32.38 35.2525 33.255 36.05 34.3575 36.325C35.54 36.62 36.54 36.5325 37.455 36.14C38.405 35.7325 39.4325 34.9225 40.5 33.5L44.925 35.605C44 39.3175 42.3075 42.355 39.6875 44.4525C37.06 46.5525 33.7575 47.5 30 47.5C26.48 47.5 23.79 46.6725 21.6075 45.415C19.5225 44.215 18 42.67 16.8075 41.4575C15.15 39.7775 14.2625 38.955 13.145 38.675C11.9625 38.38 10.9625 38.4675 10.0475 38.86C9.09749 39.2675 8.06749 40.0775 6.99999 41.5L2.57499 39.3925C3.50249 35.6825 5.19499 32.6425 7.81499 30.5475M17.5 32.5C15.43 32.5 13.7625 32.865 12.4175 33.52C15.7175 33.7275 17.87 35.7575 20.06 37.8225C21.32 39.0125 22.5925 40.2125 24.1025 41.0825C25.5025 41.8875 27.3275 42.5 30.0025 42.5C32.0725 42.5 33.74 42.135 35.085 41.48C31.785 41.275 29.6325 39.2425 27.445 37.1775C26.1825 35.9875 24.91 34.7875 23.4 33.9175C22.0025 33.1125 20.175 32.5 17.5 32.5Z" fill="#959595"/>
</svg>
